# xmcd CD database file
#
# Track frame offsets:
#	150
#	21205
#	43660
#	58757
#	78735
#	99250
#	117805
#	136470
#	154790
#	174442
#
# Disc length: 2680 seconds
#
# Revision: 0
# Processed by: cddbd v1.5PL3 Copyright (c) Steve Scherf et al.
# Submitted via: CDex 1.50beta8
#
DISCID=7d0a760a
DTITLE=杏里 - Heaven Beach
DYEAR=1982
DGENRE=Pop
TTITLE0=二番目のaffair
TTITLE1=Last Summer Whisper
TTITLE2=Lonely Driving
TTITLE3=Resolution
TTITLE4=Fly By Day
TTITLE5=Flash Back Memories
TTITLE6=Honesty Story
TTITLE7=Memorial Story
TTITLE8=夏に背を向けて
TTITLE9=Heaven Beach
EXTD=YEAR: 1982/11/21
EXTT0=
EXTT1=
EXTT2=
EXTT3=
EXTT4=
EXTT5=
EXTT6=
EXTT7=
EXTT8=
EXTT9=
PLAYORDER=
